<svg width="280" height="18" viewBox="0 0 280 18" fill="none" xmlns="http://www.w3.org/2000/svg">
<path d="M6.88142 14.108C5.93342 14.108 5.05742 13.952 4.25342 13.64C3.44942 13.316 2.75342 12.866 2.16542 12.29C1.57742 11.714 1.11542 11.036 0.779422 10.256C0.455422 9.476 0.293422 8.624 0.293422 7.7C0.293422 6.776 0.455422 5.924 0.779422 5.144C1.11542 4.364 1.57742 3.686 2.16542 3.11C2.76542 2.534 3.46742 2.09 4.27142 1.778C5.07542 1.454 5.95142 1.292 6.89942 1.292C7.81142 1.292 8.66942 1.448 9.47342 1.76C10.2774 2.06 10.9554 2.516 11.5074 3.128L10.6614 3.974C10.1454 3.446 9.57542 3.068 8.95142 2.84C8.32742 2.6 7.65542 2.48 6.93542 2.48C6.17942 2.48 5.47742 2.612 4.82942 2.876C4.18142 3.128 3.61742 3.494 3.13742 3.974C2.65742 4.442 2.27942 4.994 2.00342 5.63C1.73942 6.254 1.60742 6.944 1.60742 7.7C1.60742 8.456 1.73942 9.152 2.00342 9.788C2.27942 10.412 2.65742 10.964 3.13742 11.444C3.61742 11.912 4.18142 12.278 4.82942 12.542C5.47742 12.794 6.17942 12.92 6.93542 12.92C7.65542 12.92 8.32742 12.8 8.95142 12.56C9.57542 12.32 10.1454 11.936 10.6614 11.408L11.5074 12.254C10.9554 12.866 10.2774 13.328 9.47342 13.64C8.66942 13.952 7.80542 14.108 6.88142 14.108ZM17.507 14.09C16.595 14.09 15.773 13.886 15.041 13.478C14.321 13.058 13.751 12.488 13.331 11.768C12.911 11.036 12.701 10.202 12.701 9.266C12.701 8.318 12.911 7.484 13.331 6.764C13.751 6.044 14.321 5.48 15.041 5.072C15.761 4.664 16.583 4.46 17.507 4.46C18.443 4.46 19.271 4.664 19.991 5.072C20.723 5.48 21.293 6.044 21.701 6.764C22.121 7.484 22.331 8.318 22.331 9.266C22.331 10.202 22.121 11.036 21.701 11.768C21.293 12.488 20.723 13.058 19.991 13.478C19.259 13.886 18.431 14.09 17.507 14.09ZM17.507 12.956C18.191 12.956 18.797 12.806 19.325 12.506C19.853 12.194 20.267 11.762 20.567 11.21C20.879 10.646 21.035 9.998 21.035 9.266C21.035 8.522 20.879 7.874 20.567 7.322C20.267 6.77 19.853 6.344 19.325 6.044C18.797 5.732 18.197 5.576 17.525 5.576C16.853 5.576 16.253 5.732 15.725 6.044C15.197 6.344 14.777 6.77 14.465 7.322C14.153 7.874 13.997 8.522 13.997 9.266C13.997 9.998 14.153 10.646 14.465 11.21C14.777 11.762 15.197 12.194 15.725 12.506C16.253 12.806 16.847 12.956 17.507 12.956ZM29.7642 4.46C30.5322 4.46 31.2042 4.61 31.7802 4.91C32.3682 5.198 32.8242 5.642 33.1482 6.242C33.4842 6.842 33.6522 7.598 33.6522 8.51V14H32.3742V8.636C32.3742 7.64 32.1222 6.89 31.6182 6.386C31.1262 5.87 30.4302 5.612 29.5302 5.612C28.8582 5.612 28.2702 5.75 27.7662 6.026C27.2742 6.29 26.8902 6.68 26.6142 7.196C26.3502 7.7 26.2182 8.312 26.2182 9.032V14H24.9402V4.55H26.1642V7.142L25.9662 6.656C26.2662 5.972 26.7462 5.438 27.4062 5.054C28.0662 4.658 28.8522 4.46 29.7642 4.46ZM41.9283 4.46C42.6963 4.46 43.3683 4.61 43.9443 4.91C44.5323 5.198 44.9883 5.642 45.3123 6.242C45.6483 6.842 45.8163 7.598 45.8163 8.51V14H44.5383V8.636C44.5383 7.64 44.2863 6.89 43.7823 6.386C43.2903 5.87 42.5943 5.612 41.6943 5.612C41.0223 5.612 40.4343 5.75 39.9303 6.026C39.4383 6.29 39.0543 6.68 38.7783 7.196C38.5143 7.7 38.3823 8.312 38.3823 9.032V14H37.1043V4.55H38.3283V7.142L38.1303 6.656C38.4303 5.972 38.9103 5.438 39.5703 5.054C40.2303 4.658 41.0163 4.46 41.9283 4.46ZM53.2823 14.09C52.2983 14.09 51.4343 13.886 50.6903 13.478C49.9463 13.058 49.3643 12.488 48.9443 11.768C48.5243 11.036 48.3143 10.202 48.3143 9.266C48.3143 8.33 48.5123 7.502 48.9083 6.782C49.3163 6.062 49.8683 5.498 50.5643 5.09C51.2723 4.67 52.0643 4.46 52.9403 4.46C53.8283 4.46 54.6143 4.664 55.2983 5.072C55.9943 5.468 56.5403 6.032 56.9363 6.764C57.3323 7.484 57.5303 8.318 57.5303 9.266C57.5303 9.326 57.5243 9.392 57.5123 9.464C57.5123 9.524 57.5123 9.59 57.5123 9.662H49.2863V8.708H56.8283L56.3243 9.086C56.3243 8.402 56.1743 7.796 55.8743 7.268C55.5863 6.728 55.1903 6.308 54.6863 6.008C54.1823 5.708 53.6003 5.558 52.9403 5.558C52.2923 5.558 51.7103 5.708 51.1943 6.008C50.6783 6.308 50.2763 6.728 49.9883 7.268C49.7003 7.808 49.5563 8.426 49.5563 9.122V9.32C49.5563 10.04 49.7123 10.676 50.0243 11.228C50.3483 11.768 50.7923 12.194 51.3563 12.506C51.9323 12.806 52.5863 12.956 53.3183 12.956C53.8943 12.956 54.4283 12.854 54.9203 12.65C55.4243 12.446 55.8563 12.134 56.2163 11.714L56.9363 12.542C56.5163 13.046 55.9883 13.43 55.3523 13.694C54.7283 13.958 54.0383 14.09 53.2823 14.09ZM64.0556 14.09C63.1196 14.09 62.2796 13.886 61.5356 13.478C60.8036 13.058 60.2276 12.488 59.8076 11.768C59.3876 11.036 59.1776 10.202 59.1776 9.266C59.1776 8.318 59.3876 7.484 59.8076 6.764C60.2276 6.044 60.8036 5.48 61.5356 5.072C62.2796 4.664 63.1196 4.46 64.0556 4.46C64.8596 4.46 65.5856 4.616 66.2336 4.928C66.8816 5.24 67.3916 5.708 67.7636 6.332L66.8096 6.98C66.4856 6.5 66.0836 6.146 65.6036 5.918C65.1236 5.69 64.6016 5.576 64.0376 5.576C63.3656 5.576 62.7596 5.732 62.2196 6.044C61.6796 6.344 61.2536 6.77 60.9416 7.322C60.6296 7.874 60.4736 8.522 60.4736 9.266C60.4736 10.01 60.6296 10.658 60.9416 11.21C61.2536 11.762 61.6796 12.194 62.2196 12.506C62.7596 12.806 63.3656 12.956 64.0376 12.956C64.6016 12.956 65.1236 12.842 65.6036 12.614C66.0836 12.386 66.4856 12.038 66.8096 11.57L67.7636 12.218C67.3916 12.83 66.8816 13.298 66.2336 13.622C65.5856 13.934 64.8596 14.09 64.0556 14.09ZM73.3677 14.09C72.4797 14.09 71.7957 13.85 71.3157 13.37C70.8357 12.89 70.5957 12.212 70.5957 11.336V2.462H71.8737V11.264C71.8737 11.816 72.0117 12.242 72.2877 12.542C72.5757 12.842 72.9837 12.992 73.5117 12.992C74.0757 12.992 74.5437 12.83 74.9157 12.506L75.3657 13.424C75.1137 13.652 74.8077 13.82 74.4477 13.928C74.0997 14.036 73.7397 14.09 73.3677 14.09ZM68.9037 5.612V4.55H74.7537V5.612H68.9037ZM77.6922 14V4.55H78.9702V14H77.6922ZM78.3402 2.462C78.0762 2.462 77.8542 2.372 77.6742 2.192C77.4942 2.012 77.4042 1.796 77.4042 1.544C77.4042 1.292 77.4942 1.082 77.6742 0.913999C77.8542 0.733999 78.0762 0.643999 78.3402 0.643999C78.6042 0.643999 78.8262 0.727999 79.0062 0.895999C79.1862 1.064 79.2762 1.274 79.2762 1.526C79.2762 1.79 79.1862 2.012 79.0062 2.192C78.8382 2.372 78.6162 2.462 78.3402 2.462ZM87.3501 4.46C88.1181 4.46 88.7901 4.61 89.3661 4.91C89.9541 5.198 90.4101 5.642 90.7341 6.242C91.0701 6.842 91.2381 7.598 91.2381 8.51V14H89.9601V8.636C89.9601 7.64 89.7081 6.89 89.2041 6.386C88.7121 5.87 88.0161 5.612 87.1161 5.612C86.4441 5.612 85.8561 5.75 85.3521 6.026C84.8601 6.29 84.4761 6.68 84.2001 7.196C83.9361 7.7 83.8041 8.312 83.8041 9.032V14H82.5261V4.55H83.7501V7.142L83.5521 6.656C83.8521 5.972 84.3321 5.438 84.9921 5.054C85.6521 4.658 86.4381 4.46 87.3501 4.46ZM98.7222 17.582C97.8582 17.582 97.0302 17.456 96.2382 17.204C95.4462 16.952 94.8042 16.592 94.3122 16.124L94.9602 15.152C95.4042 15.548 95.9502 15.86 96.5982 16.088C97.2582 16.328 97.9542 16.448 98.6862 16.448C99.8862 16.448 100.768 16.166 101.332 15.602C101.896 15.05 102.178 14.186 102.178 13.01V10.652L102.358 9.032L102.232 7.412V4.55H103.456V12.848C103.456 14.48 103.054 15.674 102.25 16.43C101.458 17.198 100.282 17.582 98.7222 17.582ZM98.4882 13.64C97.5882 13.64 96.7782 13.448 96.0582 13.064C95.3382 12.668 94.7682 12.122 94.3482 11.426C93.9402 10.73 93.7362 9.932 93.7362 9.032C93.7362 8.132 93.9402 7.34 94.3482 6.656C94.7682 5.96 95.3382 5.42 96.0582 5.036C96.7782 4.652 97.5882 4.46 98.4882 4.46C99.3282 4.46 100.084 4.634 100.756 4.982C101.428 5.33 101.962 5.846 102.358 6.53C102.754 7.214 102.952 8.048 102.952 9.032C102.952 10.016 102.754 10.85 102.358 11.534C101.962 12.218 101.428 12.74 100.756 13.1C100.084 13.46 99.3282 13.64 98.4882 13.64ZM98.6142 12.506C99.3102 12.506 99.9282 12.362 100.468 12.074C101.008 11.774 101.434 11.366 101.746 10.85C102.058 10.322 102.214 9.716 102.214 9.032C102.214 8.348 102.058 7.748 101.746 7.232C101.434 6.716 101.008 6.314 100.468 6.026C99.9282 5.726 99.3102 5.576 98.6142 5.576C97.9302 5.576 97.3122 5.726 96.7602 6.026C96.2202 6.314 95.7942 6.716 95.4822 7.232C95.1822 7.748 95.0322 8.348 95.0322 9.032C95.0322 9.716 95.1822 10.322 95.4822 10.85C95.7942 11.366 96.2202 11.774 96.7602 12.074C97.3122 12.362 97.9302 12.506 98.6142 12.506ZM115.467 14.108C114.531 14.108 113.631 13.958 112.767 13.658C111.915 13.346 111.255 12.95 110.787 12.47L111.309 11.444C111.753 11.876 112.347 12.242 113.091 12.542C113.847 12.83 114.639 12.974 115.467 12.974C116.259 12.974 116.901 12.878 117.393 12.686C117.897 12.482 118.263 12.212 118.491 11.876C118.731 11.54 118.851 11.168 118.851 10.76C118.851 10.268 118.707 9.872 118.419 9.572C118.143 9.272 117.777 9.038 117.321 8.87C116.865 8.69 116.361 8.534 115.809 8.402C115.257 8.27 114.705 8.132 114.153 7.988C113.601 7.832 113.091 7.628 112.623 7.376C112.167 7.124 111.795 6.794 111.507 6.386C111.231 5.966 111.093 5.42 111.093 4.748C111.093 4.124 111.255 3.554 111.579 3.038C111.915 2.51 112.425 2.09 113.109 1.778C113.793 1.454 114.669 1.292 115.737 1.292C116.445 1.292 117.147 1.394 117.843 1.598C118.539 1.79 119.139 2.06 119.643 2.408L119.193 3.47C118.653 3.11 118.077 2.846 117.465 2.678C116.865 2.51 116.283 2.426 115.719 2.426C114.963 2.426 114.339 2.528 113.847 2.732C113.355 2.936 112.989 3.212 112.749 3.56C112.521 3.896 112.407 4.28 112.407 4.712C112.407 5.204 112.545 5.6 112.821 5.9C113.109 6.2 113.481 6.434 113.937 6.602C114.405 6.77 114.915 6.92 115.467 7.052C116.019 7.184 116.565 7.328 117.105 7.484C117.657 7.64 118.161 7.844 118.617 8.096C119.085 8.336 119.457 8.66 119.733 9.068C120.021 9.476 120.165 10.01 120.165 10.67C120.165 11.282 119.997 11.852 119.661 12.38C119.325 12.896 118.809 13.316 118.113 13.64C117.429 13.952 116.547 14.108 115.467 14.108ZM125.786 14.09C124.898 14.09 124.214 13.85 123.734 13.37C123.254 12.89 123.014 12.212 123.014 11.336V2.462H124.292V11.264C124.292 11.816 124.43 12.242 124.706 12.542C124.994 12.842 125.402 12.992 125.93 12.992C126.494 12.992 126.962 12.83 127.334 12.506L127.784 13.424C127.532 13.652 127.226 13.82 126.866 13.928C126.518 14.036 126.158 14.09 125.786 14.09ZM121.322 5.612V4.55H127.172V5.612H121.322ZM133.628 14.09C132.716 14.09 131.894 13.886 131.162 13.478C130.442 13.058 129.872 12.488 129.452 11.768C129.032 11.036 128.822 10.202 128.822 9.266C128.822 8.318 129.032 7.484 129.452 6.764C129.872 6.044 130.442 5.48 131.162 5.072C131.882 4.664 132.704 4.46 133.628 4.46C134.564 4.46 135.392 4.664 136.112 5.072C136.844 5.48 137.414 6.044 137.822 6.764C138.242 7.484 138.452 8.318 138.452 9.266C138.452 10.202 138.242 11.036 137.822 11.768C137.414 12.488 136.844 13.058 136.112 13.478C135.38 13.886 134.552 14.09 133.628 14.09ZM133.628 12.956C134.312 12.956 134.918 12.806 135.446 12.506C135.974 12.194 136.388 11.762 136.688 11.21C137 10.646 137.156 9.998 137.156 9.266C137.156 8.522 137 7.874 136.688 7.322C136.388 6.77 135.974 6.344 135.446 6.044C134.918 5.732 134.318 5.576 133.646 5.576C132.974 5.576 132.374 5.732 131.846 6.044C131.318 6.344 130.898 6.77 130.586 7.322C130.274 7.874 130.118 8.522 130.118 9.266C130.118 9.998 130.274 10.646 130.586 11.21C130.898 11.762 131.318 12.194 131.846 12.506C132.374 12.806 132.968 12.956 133.628 12.956ZM141.061 14V4.55H142.285V7.124L142.159 6.674C142.423 5.954 142.867 5.408 143.491 5.036C144.115 4.652 144.889 4.46 145.813 4.46V5.702C145.765 5.702 145.717 5.702 145.669 5.702C145.621 5.69 145.573 5.684 145.525 5.684C144.529 5.684 143.749 5.99 143.185 6.602C142.621 7.202 142.339 8.06 142.339 9.176V14H141.061ZM148.145 14V4.55H149.423V14H148.145ZM148.793 2.462C148.529 2.462 148.307 2.372 148.127 2.192C147.947 2.012 147.857 1.796 147.857 1.544C147.857 1.292 147.947 1.082 148.127 0.913999C148.307 0.733999 148.529 0.643999 148.793 0.643999C149.057 0.643999 149.279 0.727999 149.459 0.895999C149.639 1.064 149.729 1.274 149.729 1.526C149.729 1.79 149.639 2.012 149.459 2.192C149.291 2.372 149.069 2.462 148.793 2.462ZM156.993 14.09C156.009 14.09 155.145 13.886 154.401 13.478C153.657 13.058 153.075 12.488 152.655 11.768C152.235 11.036 152.025 10.202 152.025 9.266C152.025 8.33 152.223 7.502 152.619 6.782C153.027 6.062 153.579 5.498 154.275 5.09C154.983 4.67 155.775 4.46 156.651 4.46C157.539 4.46 158.325 4.664 159.009 5.072C159.705 5.468 160.251 6.032 160.647 6.764C161.043 7.484 161.241 8.318 161.241 9.266C161.241 9.326 161.235 9.392 161.223 9.464C161.223 9.524 161.223 9.59 161.223 9.662H152.997V8.708H160.539L160.035 9.086C160.035 8.402 159.885 7.796 159.585 7.268C159.297 6.728 158.901 6.308 158.397 6.008C157.893 5.708 157.311 5.558 156.651 5.558C156.003 5.558 155.421 5.708 154.905 6.008C154.389 6.308 153.987 6.728 153.699 7.268C153.411 7.808 153.267 8.426 153.267 9.122V9.32C153.267 10.04 153.423 10.676 153.735 11.228C154.059 11.768 154.503 12.194 155.067 12.506C155.643 12.806 156.297 12.956 157.029 12.956C157.605 12.956 158.139 12.854 158.631 12.65C159.135 12.446 159.567 12.134 159.927 11.714L160.647 12.542C160.227 13.046 159.699 13.43 159.063 13.694C158.439 13.958 157.749 14.09 156.993 14.09ZM166.381 14.09C165.601 14.09 164.863 13.982 164.167 13.766C163.471 13.538 162.925 13.256 162.529 12.92L163.105 11.912C163.489 12.2 163.981 12.452 164.581 12.668C165.181 12.872 165.811 12.974 166.471 12.974C167.371 12.974 168.019 12.836 168.415 12.56C168.811 12.272 169.009 11.894 169.009 11.426C169.009 11.078 168.895 10.808 168.667 10.616C168.451 10.412 168.163 10.262 167.803 10.166C167.443 10.058 167.041 9.968 166.597 9.896C166.153 9.824 165.709 9.74 165.265 9.644C164.833 9.548 164.437 9.41 164.077 9.23C163.717 9.038 163.423 8.78 163.195 8.456C162.979 8.132 162.871 7.7 162.871 7.16C162.871 6.644 163.015 6.182 163.303 5.774C163.591 5.366 164.011 5.048 164.563 4.82C165.127 4.58 165.811 4.46 166.615 4.46C167.227 4.46 167.839 4.544 168.451 4.712C169.063 4.868 169.567 5.078 169.963 5.342L169.405 6.368C168.985 6.08 168.535 5.876 168.055 5.756C167.575 5.624 167.095 5.558 166.615 5.558C165.763 5.558 165.133 5.708 164.725 6.008C164.329 6.296 164.131 6.668 164.131 7.124C164.131 7.484 164.239 7.766 164.455 7.97C164.683 8.174 164.977 8.336 165.337 8.456C165.709 8.564 166.111 8.654 166.543 8.726C166.987 8.798 167.425 8.888 167.857 8.996C168.301 9.092 168.703 9.23 169.063 9.41C169.435 9.578 169.729 9.824 169.945 10.148C170.173 10.46 170.287 10.874 170.287 11.39C170.287 11.942 170.131 12.422 169.819 12.83C169.519 13.226 169.075 13.538 168.487 13.766C167.911 13.982 167.209 14.09 166.381 14.09ZM180.061 14V2.552H175.633V1.4H185.821V2.552H181.393V14H180.061ZM192.502 4.46C193.27 4.46 193.942 4.61 194.518 4.91C195.106 5.198 195.562 5.642 195.886 6.242C196.222 6.842 196.39 7.598 196.39 8.51V14H195.112V8.636C195.112 7.64 194.86 6.89 194.356 6.386C193.864 5.87 193.168 5.612 192.268 5.612C191.596 5.612 191.008 5.75 190.504 6.026C190.012 6.29 189.628 6.68 189.352 7.196C189.088 7.7 188.956 8.312 188.956 9.032V14H187.678V0.643999H188.956V7.142L188.704 6.656C189.004 5.972 189.484 5.438 190.144 5.054C190.804 4.658 191.59 4.46 192.502 4.46ZM205.765 14V11.912L205.711 11.57V8.078C205.711 7.274 205.483 6.656 205.027 6.224C204.583 5.792 203.917 5.576 203.029 5.576C202.417 5.576 201.835 5.678 201.283 5.882C200.731 6.086 200.263 6.356 199.879 6.692L199.303 5.738C199.783 5.33 200.359 5.018 201.031 4.802C201.703 4.574 202.411 4.46 203.155 4.46C204.379 4.46 205.321 4.766 205.981 5.378C206.653 5.978 206.989 6.896 206.989 8.132V14H205.765ZM202.507 14.09C201.799 14.09 201.181 13.976 200.653 13.748C200.137 13.508 199.741 13.184 199.465 12.776C199.189 12.356 199.051 11.876 199.051 11.336C199.051 10.844 199.165 10.4 199.393 10.004C199.633 9.596 200.017 9.272 200.545 9.032C201.085 8.78 201.805 8.654 202.705 8.654H205.963V9.608H202.741C201.829 9.608 201.193 9.77 200.833 10.094C200.485 10.418 200.311 10.82 200.311 11.3C200.311 11.84 200.521 12.272 200.941 12.596C201.361 12.92 201.949 13.082 202.705 13.082C203.425 13.082 204.043 12.92 204.559 12.596C205.087 12.26 205.471 11.78 205.711 11.156L205.999 12.038C205.759 12.662 205.339 13.16 204.739 13.532C204.151 13.904 203.407 14.09 202.507 14.09ZM213.448 14.09C212.56 14.09 211.876 13.85 211.396 13.37C210.916 12.89 210.676 12.212 210.676 11.336V2.462H211.954V11.264C211.954 11.816 212.092 12.242 212.368 12.542C212.656 12.842 213.064 12.992 213.592 12.992C214.156 12.992 214.624 12.83 214.996 12.506L215.446 13.424C215.194 13.652 214.888 13.82 214.528 13.928C214.18 14.036 213.82 14.09 213.448 14.09ZM208.984 5.612V4.55H214.834V5.612H208.984ZM222.753 14V1.4H223.851L229.611 11.228H229.035L234.741 1.4H235.839V14H234.561V3.398H234.867L229.611 12.398H228.981L223.689 3.398H224.031V14H222.753ZM245.597 14V11.912L245.543 11.57V8.078C245.543 7.274 245.315 6.656 244.859 6.224C244.415 5.792 243.749 5.576 242.861 5.576C242.249 5.576 241.667 5.678 241.115 5.882C240.563 6.086 240.095 6.356 239.711 6.692L239.135 5.738C239.615 5.33 240.191 5.018 240.863 4.802C241.535 4.574 242.243 4.46 242.987 4.46C244.211 4.46 245.153 4.766 245.813 5.378C246.485 5.978 246.821 6.896 246.821 8.132V14H245.597ZM242.339 14.09C241.631 14.09 241.013 13.976 240.485 13.748C239.969 13.508 239.573 13.184 239.297 12.776C239.021 12.356 238.883 11.876 238.883 11.336C238.883 10.844 238.997 10.4 239.225 10.004C239.465 9.596 239.849 9.272 240.377 9.032C240.917 8.78 241.637 8.654 242.537 8.654H245.795V9.608H242.573C241.661 9.608 241.025 9.77 240.665 10.094C240.317 10.418 240.143 10.82 240.143 11.3C240.143 11.84 240.353 12.272 240.773 12.596C241.193 12.92 241.781 13.082 242.537 13.082C243.257 13.082 243.875 12.92 244.391 12.596C244.919 12.26 245.303 11.78 245.543 11.156L245.831 12.038C245.591 12.662 245.171 13.16 244.571 13.532C243.983 13.904 243.239 14.09 242.339 14.09ZM253.28 14.09C252.392 14.09 251.708 13.85 251.228 13.37C250.748 12.89 250.508 12.212 250.508 11.336V2.462H251.786V11.264C251.786 11.816 251.924 12.242 252.2 12.542C252.488 12.842 252.896 12.992 253.424 12.992C253.988 12.992 254.456 12.83 254.828 12.506L255.278 13.424C255.026 13.652 254.72 13.82 254.36 13.928C254.012 14.036 253.652 14.09 253.28 14.09ZM248.816 5.612V4.55H254.666V5.612H248.816ZM260.346 14.09C259.458 14.09 258.774 13.85 258.294 13.37C257.814 12.89 257.574 12.212 257.574 11.336V2.462H258.852V11.264C258.852 11.816 258.99 12.242 259.266 12.542C259.554 12.842 259.962 12.992 260.49 12.992C261.054 12.992 261.522 12.83 261.894 12.506L262.344 13.424C262.092 13.652 261.786 13.82 261.426 13.928C261.078 14.036 260.718 14.09 260.346 14.09ZM255.882 5.612V4.55H261.732V5.612H255.882ZM268.351 14.09C267.367 14.09 266.503 13.886 265.759 13.478C265.015 13.058 264.433 12.488 264.013 11.768C263.593 11.036 263.383 10.202 263.383 9.266C263.383 8.33 263.581 7.502 263.977 6.782C264.385 6.062 264.937 5.498 265.633 5.09C266.341 4.67 267.133 4.46 268.009 4.46C268.897 4.46 269.683 4.664 270.367 5.072C271.063 5.468 271.609 6.032 272.005 6.764C272.401 7.484 272.599 8.318 272.599 9.266C272.599 9.326 272.593 9.392 272.581 9.464C272.581 9.524 272.581 9.59 272.581 9.662H264.355V8.708H271.897L271.393 9.086C271.393 8.402 271.243 7.796 270.943 7.268C270.655 6.728 270.259 6.308 269.755 6.008C269.251 5.708 268.669 5.558 268.009 5.558C267.361 5.558 266.779 5.708 266.263 6.008C265.747 6.308 265.345 6.728 265.057 7.268C264.769 7.808 264.625 8.426 264.625 9.122V9.32C264.625 10.04 264.781 10.676 265.093 11.228C265.417 11.768 265.861 12.194 266.425 12.506C267.001 12.806 267.655 12.956 268.387 12.956C268.963 12.956 269.497 12.854 269.989 12.65C270.493 12.446 270.925 12.134 271.285 11.714L272.005 12.542C271.585 13.046 271.057 13.43 270.421 13.694C269.797 13.958 269.107 14.09 268.351 14.09ZM275.2 14V4.55H276.424V7.124L276.298 6.674C276.562 5.954 277.006 5.408 277.63 5.036C278.254 4.652 279.028 4.46 279.952 4.46V5.702C279.904 5.702 279.856 5.702 279.808 5.702C279.76 5.69 279.712 5.684 279.664 5.684C278.668 5.684 277.888 5.99 277.324 6.602C276.76 7.202 276.478 8.06 276.478 9.176V14H275.2Z" fill="#111111"/>
</svg>
